<mxfile host="www.draw.io" modified="2020-05-21T09:47:18.920Z" agent="5.0 (Macintosh; Intel Mac OS X 10_15_3) AppleWebKit/537.36 (KHTML, like Gecko) Chrome/81.0.4044.138 Safari/537.36" etag="wI04tpcI9Yv5nYr9h7za" version="13.1.3" type="github">
  <diagram name="Page-1" id="9361dd3d-8414-5efd-6122-117bd74ce7a7">
    <mxGraphModel dx="1137" dy="741" grid="1" gridSize="10" guides="1" tooltips="1" connect="1" arrows="1" fold="1" page="0" pageScale="1.5" pageWidth="826" pageHeight="1169" background="#ffffff" math="0" shadow="0">
      <root>
        <mxCell id="0" />
        <mxCell id="1" parent="0" />
        <mxCell id="81" value="" style="edgeStyle=elbowEdgeStyle;elbow=horizontal;endArrow=none;dashed=1" parent="1" edge="1">
          <mxGeometry x="1460" y="437.8935185185186" width="100" height="100" as="geometry">
            <mxPoint x="1354.5" y="610" as="sourcePoint" />
            <mxPoint x="1354.5" y="770" as="targetPoint" />
          </mxGeometry>
        </mxCell>
        <mxCell id="2" value="" style="fillColor=#CC4125;strokeColor=#660000" parent="1" vertex="1">
          <mxGeometry x="200" y="150" width="10" height="90" as="geometry" />
        </mxCell>
        <mxCell id="4" value="loader" style="shadow=1;fillColor=#A2C4C9;strokeColor=none" parent="1" vertex="1">
          <mxGeometry x="152.5" y="60" width="105" height="50" as="geometry" />
        </mxCell>
        <mxCell id="6" value="" style="fillColor=#CC4125;strokeColor=#660000" parent="1" vertex="1">
          <mxGeometry x="342.5" y="180" width="10" height="40" as="geometry" />
        </mxCell>
        <mxCell id="7" value="db" style="shadow=1;fillColor=#A2C4C9;strokeColor=none" parent="1" vertex="1">
          <mxGeometry x="295" y="60" width="105" height="50" as="geometry" />
        </mxCell>
        <mxCell id="8" value="" style="edgeStyle=none;endArrow=none;dashed=1" parent="1" source="7" target="6" edge="1">
          <mxGeometry x="272.3350694444445" y="165" width="100" height="100" as="geometry">
            <mxPoint x="347.2588734567901" y="110" as="sourcePoint" />
            <mxPoint x="347.5761959876544" y="165" as="targetPoint" />
          </mxGeometry>
        </mxCell>
        <mxCell id="9" value="GetFromDB" style="edgeStyle=none;verticalLabelPosition=top;verticalAlign=bottom" parent="1" edge="1">
          <mxGeometry x="220" y="92" width="100" height="100" as="geometry">
            <mxPoint x="210" y="179.5" as="sourcePoint" />
            <mxPoint x="340" y="179.5" as="targetPoint" />
          </mxGeometry>
        </mxCell>
        <mxCell id="11" value="" style="edgeStyle=none;verticalLabelPosition=top;verticalAlign=bottom;endArrow=none;startArrow=classic;dashed=1" parent="1" edge="1">
          <mxGeometry x="220" y="132.49887345679014" width="100" height="100" as="geometry">
            <mxPoint x="210" y="219.99887345679014" as="sourcePoint" />
            <mxPoint x="340" y="219.99887345679014" as="targetPoint" />
          </mxGeometry>
        </mxCell>
        <mxCell id="16" value="" style="edgeStyle=none;endArrow=none" parent="1" target="17" edge="1">
          <mxGeometry x="437.042824074074" y="270" width="100" height="100" as="geometry">
            <mxPoint x="514.7839506172838" y="220" as="sourcePoint" />
            <mxPoint x="514.542824074074" y="239.99999999999997" as="targetPoint" />
          </mxGeometry>
        </mxCell>
        <mxCell id="17" value="" style="fillColor=#CC4125;strokeColor=#660000" parent="1" vertex="1">
          <mxGeometry x="509.78" y="244.39" width="10" height="235.61" as="geometry" />
        </mxCell>
        <mxCell id="22" value="gpe" style="shadow=1;fillColor=#A2C4C9;strokeColor=none" parent="1" vertex="1">
          <mxGeometry x="462.28" y="170" width="105" height="50" as="geometry" />
        </mxCell>
        <mxCell id="33" value="" style="edgeStyle=elbowEdgeStyle;elbow=horizontal;endArrow=none;dashed=1" parent="1" source="4" target="2" edge="1">
          <mxGeometry x="230.00000000000003" y="310" width="100" height="100" as="geometry">
            <mxPoint x="230.00000000000003" y="410" as="sourcePoint" />
            <mxPoint x="330" y="310" as="targetPoint" />
          </mxGeometry>
        </mxCell>
        <mxCell id="42" value="" style="fillColor=#CC4125;strokeColor=#660000" parent="1" vertex="1">
          <mxGeometry x="200" y="280" width="10" height="190" as="geometry" />
        </mxCell>
        <mxCell id="44" value="" style="edgeStyle=none;dashed=1;endArrow=none" parent="1" source="2" target="42" edge="1">
          <mxGeometry x="50" y="300" width="100" height="100" as="geometry">
            <mxPoint x="50" y="400" as="sourcePoint" />
            <mxPoint x="150" y="300" as="targetPoint" />
          </mxGeometry>
        </mxCell>
        <mxCell id="52" value="" style="edgeStyle=none;endArrow=none;dashed=1" parent="1" source="6" edge="1">
          <mxGeometry x="376.5711805555559" y="339.6971450617284" width="100" height="100" as="geometry">
            <mxPoint x="451.7361111111112" y="284.6971450617284" as="sourcePoint" />
            <mxPoint x="348" y="240" as="targetPoint" />
          </mxGeometry>
        </mxCell>
        <mxCell id="53" value="GET /policy" style="edgeStyle=elbowEdgeStyle;elbow=vertical;verticalLabelPosition=top;verticalAlign=bottom" parent="1" edge="1">
          <mxGeometry x="387.5" y="259.2355555555556" width="100" height="100" as="geometry">
            <mxPoint x="210" y="299.99944444444446" as="sourcePoint" />
            <mxPoint x="510" y="300" as="targetPoint" />
            <Array as="points" />
          </mxGeometry>
        </mxCell>
        <mxCell id="58" value="" style="fillColor=#CC4125;strokeColor=#660000" parent="1" vertex="1">
          <mxGeometry x="1350" y="540" width="10" height="70" as="geometry" />
        </mxCell>
        <mxCell id="64" value="&lt;&lt;service&gt;&gt;&#xa;:GimqService" style="shadow=1;fillColor=#A2C4C9;strokeColor=none" parent="1" vertex="1">
          <mxGeometry x="1302.5" y="60" width="105" height="50" as="geometry" />
        </mxCell>
        <mxCell id="65" value="" style="edgeStyle=none;endArrow=none;dashed=1" parent="1" source="64" target="58" edge="1">
          <mxGeometry x="1174.0711805555559" y="210" width="100" height="100" as="geometry">
            <mxPoint x="1222.5" y="115" as="sourcePoint" />
            <mxPoint x="1222.5" y="445" as="targetPoint" />
          </mxGeometry>
        </mxCell>
        <mxCell id="71" value="reconcile" style="rounded=1;fontStyle=1;fillColor=#FFD966;strokeColor=none" parent="1" vertex="1">
          <mxGeometry x="40" y="620" width="150" height="30" as="geometry" />
        </mxCell>
        <mxCell id="72" value="FetchFromGPE" style="rounded=1;fontStyle=1;fillColor=#FFD966;strokeColor=none" parent="1" vertex="1">
          <mxGeometry x="70" y="360" width="107.5" height="30" as="geometry" />
        </mxCell>
        <mxCell id="jIH5vykjhsGogKz-FUTE-89" value="" style="endArrow=classic;html=1;entryX=0.9;entryY=0.186;entryDx=0;entryDy=0;entryPerimeter=0;dashed=1;" edge="1" parent="1">
          <mxGeometry width="50" height="50" relative="1" as="geometry">
            <mxPoint x="508" y="340" as="sourcePoint" />
            <mxPoint x="208.78" y="341.8399999999999" as="targetPoint" />
          </mxGeometry>
        </mxCell>
        <mxCell id="jIH5vykjhsGogKz-FUTE-91" value="GET /policy/:policyname" style="edgeStyle=elbowEdgeStyle;elbow=vertical;verticalLabelPosition=top;verticalAlign=bottom" edge="1" parent="1">
          <mxGeometry x="387.28" y="359.2355555555556" width="100" height="100" as="geometry">
            <mxPoint x="209.78" y="399.9994444444444" as="sourcePoint" />
            <mxPoint x="509.78" y="400" as="targetPoint" />
            <Array as="points" />
          </mxGeometry>
        </mxCell>
        <mxCell id="jIH5vykjhsGogKz-FUTE-92" value="" style="endArrow=classic;html=1;entryX=0.9;entryY=0.186;entryDx=0;entryDy=0;entryPerimeter=0;dashed=1;exitX=-0.178;exitY=0.199;exitDx=0;exitDy=0;exitPerimeter=0;" edge="1" parent="1">
          <mxGeometry width="50" height="50" relative="1" as="geometry">
            <mxPoint x="509.78" y="429.99638999999996" as="sourcePoint" />
            <mxPoint x="210.55999999999997" y="432.7999999999999" as="targetPoint" />
          </mxGeometry>
        </mxCell>
        <mxCell id="jIH5vykjhsGogKz-FUTE-93" value="..." style="text;html=1;strokeColor=none;fillColor=none;align=center;verticalAlign=middle;whiteSpace=wrap;rounded=0;" vertex="1" parent="1">
          <mxGeometry x="342.5" y="440" width="40" height="20" as="geometry" />
        </mxCell>
        <mxCell id="jIH5vykjhsGogKz-FUTE-94" value="" style="edgeStyle=none;dashed=1;endArrow=none" edge="1" parent="1">
          <mxGeometry x="49.5" y="530" width="100" height="100" as="geometry">
            <mxPoint x="204.5" y="470" as="sourcePoint" />
            <mxPoint x="205" y="520" as="targetPoint" />
          </mxGeometry>
        </mxCell>
        <mxCell id="jIH5vykjhsGogKz-FUTE-95" value="" style="edgeStyle=none;dashed=1;endArrow=none" edge="1" parent="1">
          <mxGeometry x="359.28" y="540" width="100" height="100" as="geometry">
            <mxPoint x="514.28" y="480" as="sourcePoint" />
            <mxPoint x="514.28" y="520" as="targetPoint" />
          </mxGeometry>
        </mxCell>
        <mxCell id="jIH5vykjhsGogKz-FUTE-96" value="" style="fillColor=#CC4125;strokeColor=#660000" vertex="1" parent="1">
          <mxGeometry x="200" y="510" width="10" height="200" as="geometry" />
        </mxCell>
        <mxCell id="jIH5vykjhsGogKz-FUTE-98" value="" style="fillColor=#CC4125;strokeColor=#660000" vertex="1" parent="1">
          <mxGeometry x="509.78" y="510" width="10" height="200" as="geometry" />
        </mxCell>
        <mxCell id="jIH5vykjhsGogKz-FUTE-99" value="POST /policy" style="edgeStyle=elbowEdgeStyle;elbow=vertical;verticalLabelPosition=top;verticalAlign=bottom" edge="1" parent="1">
          <mxGeometry x="387.28" y="489.2355555555556" width="100" height="100" as="geometry">
            <mxPoint x="209.77999999999997" y="529.9994444444444" as="sourcePoint" />
            <mxPoint x="509.78" y="530" as="targetPoint" />
            <Array as="points" />
          </mxGeometry>
        </mxCell>
        <mxCell id="jIH5vykjhsGogKz-FUTE-103" value="" style="endArrow=classic;html=1;entryX=0.9;entryY=0.186;entryDx=0;entryDy=0;entryPerimeter=0;dashed=1;exitX=-0.178;exitY=0.199;exitDx=0;exitDy=0;exitPerimeter=0;" edge="1" parent="1">
          <mxGeometry width="50" height="50" relative="1" as="geometry">
            <mxPoint x="509.21999999999997" y="559.99639" as="sourcePoint" />
            <mxPoint x="209.99999999999994" y="562.8" as="targetPoint" />
          </mxGeometry>
        </mxCell>
        <mxCell id="jIH5vykjhsGogKz-FUTE-104" value="..." style="text;html=1;strokeColor=none;fillColor=none;align=center;verticalAlign=middle;whiteSpace=wrap;rounded=0;" vertex="1" parent="1">
          <mxGeometry x="340" y="565" width="40" height="20" as="geometry" />
        </mxCell>
        <mxCell id="jIH5vykjhsGogKz-FUTE-105" value="PUT /policy/:policyName/currentVersion" style="edgeStyle=elbowEdgeStyle;elbow=vertical;verticalLabelPosition=top;verticalAlign=bottom" edge="1" parent="1">
          <mxGeometry x="387.28" y="569.2355555555556" width="100" height="100" as="geometry">
            <mxPoint x="209.77999999999997" y="609.9994444444444" as="sourcePoint" />
            <mxPoint x="509.78" y="610" as="targetPoint" />
            <Array as="points" />
          </mxGeometry>
        </mxCell>
        <mxCell id="jIH5vykjhsGogKz-FUTE-106" value="..." style="text;html=1;strokeColor=none;fillColor=none;align=center;verticalAlign=middle;whiteSpace=wrap;rounded=0;" vertex="1" parent="1">
          <mxGeometry x="340" y="640" width="40" height="20" as="geometry" />
        </mxCell>
        <mxCell id="jIH5vykjhsGogKz-FUTE-107" value="" style="endArrow=classic;html=1;entryX=0.9;entryY=0.186;entryDx=0;entryDy=0;entryPerimeter=0;dashed=1;exitX=-0.178;exitY=0.199;exitDx=0;exitDy=0;exitPerimeter=0;" edge="1" parent="1">
          <mxGeometry width="50" height="50" relative="1" as="geometry">
            <mxPoint x="509.22" y="637.1963900000001" as="sourcePoint" />
            <mxPoint x="210" y="640" as="targetPoint" />
          </mxGeometry>
        </mxCell>
        <mxCell id="jIH5vykjhsGogKz-FUTE-108" value="DELETE /policy/:policyName/:version or /policy/:policyName" style="edgeStyle=elbowEdgeStyle;elbow=vertical;verticalLabelPosition=top;verticalAlign=bottom" edge="1" parent="1">
          <mxGeometry x="390" y="639.2355555555556" width="100" height="100" as="geometry">
            <mxPoint x="212.49999999999997" y="679.9994444444444" as="sourcePoint" />
            <mxPoint x="512.5" y="680" as="targetPoint" />
            <Array as="points" />
          </mxGeometry>
        </mxCell>
        <mxCell id="jIH5vykjhsGogKz-FUTE-109" value="" style="endArrow=classic;html=1;entryX=0.9;entryY=0.186;entryDx=0;entryDy=0;entryPerimeter=0;dashed=1;exitX=-0.178;exitY=0.199;exitDx=0;exitDy=0;exitPerimeter=0;" edge="1" parent="1">
          <mxGeometry width="50" height="50" relative="1" as="geometry">
            <mxPoint x="509.22" y="699.99639" as="sourcePoint" />
            <mxPoint x="210" y="702.8" as="targetPoint" />
          </mxGeometry>
        </mxCell>
      </root>
    </mxGraphModel>
  </diagram>
</mxfile>
